<svg xmlns="http://www.w3.org/2000/svg" viewBox="0 0 215 54" fill="none"><path fill-rule="evenodd" clip-rule="evenodd" d="M26.4603 35.9972C29.8984 33.1164 30.3501 27.994 27.4693 24.5559L27.1042 24.1203L32.9504 19.2217L33.3154 19.6573C38.9016 26.3241 38.0257 36.2571 31.359 41.8433L26.4603 35.9972Z" fill="url(#paint0_linear_5_16)"/><path fill-rule="evenodd" clip-rule="evenodd" d="M15.9609 33.4573L16.3259 33.893L10.4798 38.7916L10.1148 38.356C4.52853 31.6892 5.40446 21.7562 12.0712 16.17L16.9698 22.0161C13.5318 24.8969 13.0801 30.0193 15.9609 33.4573Z" fill="url(#paint1_linear_5_16)"/><path d="M24.3821 33.0746L34.0552 44.6187L19.1079 47.1333L24.3821 33.0746Z" fill="#5735E4"/><path d="M19.0474 24.9396L9.37427 13.3955L24.3215 10.881L19.0474 24.9396Z" fill="#4951FF"/><path d="M56.3951 29.055H61.9345C62.0439 29.985 62.4679 30.833 63.2065 31.599C63.9724 32.3375 64.9708 32.9257 66.2018 33.3634C67.4328 33.7737 68.8142 33.9788 70.3461 33.9788C71.7412 33.9788 72.8901 33.8284 73.7928 33.5275C74.6955 33.2266 75.3657 32.8026 75.8034 32.2555C76.241 31.7084 76.4599 31.0519 76.4599 30.2859C76.4599 29.5474 76.1863 28.9866 75.6392 28.6036C75.0921 28.1933 74.2305 27.865 73.0542 27.6188C71.8779 27.3453 70.3324 27.0717 68.4176 26.7982C66.913 26.5793 65.4906 26.2784 64.1502 25.8955C62.8098 25.4852 61.6199 24.9654 60.5804 24.3363C59.5683 23.7071 58.7613 22.9412 58.1595 22.0384C57.585 21.1084 57.2978 20.0142 57.2978 18.7559C57.2978 17.1966 57.7355 15.8289 58.6108 14.6526C59.5136 13.4764 60.8403 12.56 62.591 11.9035C64.3417 11.247 66.489 10.9187 69.033 10.9187C72.8627 10.9187 75.8034 11.7393 77.855 13.3806C79.9339 14.9946 80.9461 17.224 80.8914 20.0689H75.5572C75.4478 18.455 74.7639 17.2924 73.5056 16.5812C72.2746 15.8699 70.7154 15.5143 68.8279 15.5143C67.0772 15.5143 65.6274 15.7742 64.4785 16.2939C63.3569 16.8137 62.7961 17.7027 62.7961 18.961C62.7961 19.4534 62.9329 19.8911 63.2065 20.2741C63.48 20.6297 63.945 20.9442 64.6016 21.2178C65.2581 21.4913 66.1471 21.7512 67.2687 21.9974C68.3902 22.2436 69.7853 22.4898 71.4539 22.736C73.0132 22.9548 74.4219 23.2557 75.6803 23.6387C76.9659 23.9943 78.0601 24.473 78.9629 25.0748C79.8929 25.6493 80.6041 26.3879 81.0965 27.2906C81.5889 28.1933 81.8351 29.3012 81.8351 30.6142C81.8351 32.2281 81.4111 33.6369 80.5631 34.8405C79.7425 36.0168 78.4568 36.9332 76.7061 37.5897C74.9827 38.2462 72.7396 38.5745 69.9768 38.5745C68.0072 38.5745 66.2702 38.3693 64.7657 37.959C63.2612 37.5213 61.9618 36.9468 60.8676 36.2356C59.7734 35.5244 58.8844 34.7448 58.2005 33.8968C57.5166 33.0488 57.0243 32.2008 56.7234 31.3528C56.4498 30.5048 56.3404 29.7388 56.3951 29.055ZM91.0488 32.2144V27.6599H108.611V32.2144H91.0488ZM84.4426 38L96.9164 11.4521H102.825L115.422 38H109.472L98.5577 14.0782H101.184L90.3512 38H84.4426ZM119.897 38V11.4521H137.91C139.962 11.4521 141.74 11.7393 143.244 12.3138C144.776 12.8609 145.966 13.7362 146.814 14.9399C147.662 16.1161 148.086 17.6343 148.086 19.4944C148.086 20.7528 147.867 21.8196 147.43 22.695C146.992 23.5703 146.377 24.2815 145.583 24.8286C144.817 25.3757 143.928 25.7997 142.916 26.1006C141.904 26.3742 140.823 26.552 139.675 26.6341L139.1 26.3058C141.015 26.3332 142.588 26.4973 143.819 26.7982C145.05 27.0717 145.966 27.5915 146.568 28.3574C147.197 29.096 147.512 30.2039 147.512 31.681V38H142.054V32.0503C142.054 31.0382 141.877 30.2586 141.521 29.7115C141.165 29.137 140.523 28.7404 139.593 28.5215C138.69 28.3027 137.377 28.1933 135.653 28.1933H125.354V38H119.897ZM125.354 23.9259H137.91C139.442 23.9259 140.605 23.5566 141.398 22.8181C142.219 22.0795 142.629 21.081 142.629 19.8227C142.629 18.6191 142.219 17.7027 141.398 17.0735C140.605 16.4444 139.442 16.1298 137.91 16.1298H125.354V23.9259ZM158.556 32.2144V27.6599H176.118V32.2144H158.556ZM151.95 38L164.424 11.4521H170.333L182.93 38H176.98L166.065 14.0782H168.691L157.859 38H151.95ZM192.862 11.4521V33.4454H210.506V38H187.405V11.4521H192.862Z" fill="black"/><defs><linearGradient id="paint0_linear_5_16" x1="29.1662" y1="38.1785" x2="38.8404" y2="29.6039" gradientUnits="userSpaceOnUse"><stop stop-color="#7357E9"/><stop offset="1" stop-color="#5735E4"/></linearGradient><linearGradient id="paint1_linear_5_16" x1="14.264" y1="19.8348" x2="4.58974" y2="28.4094" gradientUnits="userSpaceOnUse"><stop stop-color="#7357E9"/><stop offset="1" stop-color="#5735E4"/></linearGradient></defs></svg>